<svg width="601" height="426" viewBox="0 0 601 426" fill="none" xmlns="http://www.w3.org/2000/svg">
<path fill-rule="evenodd" clip-rule="evenodd" d="M30.6649 14.264C21.6469 21.944 11.1719 31.078 7.38693 34.561L0.506925 40.894L2.60193 52.847C9.71493 93.442 25.4849 152.234 38.5319 186.801C45.8629 206.223 48.6529 212.749 49.3349 212.067C49.6189 211.783 49.3609 208.682 48.7619 205.176C46.0739 189.459 45.2139 183.484 41.8739 157.301C36.9009 118.325 34.1169 60.627 36.4039 43.941L37.0399 39.301H59.4259H81.8119L89.9779 43.407C125.534 61.284 154.584 88.669 175.255 123.795C182.979 136.922 182.883 135.687 176.133 135.023C172.907 134.706 163.293 133.532 154.768 132.415C123.692 128.343 85.3559 124.314 84.6749 125.048C84.2909 125.462 82.3529 131.651 80.3689 138.801C69.4179 178.254 61.5219 206.554 59.8599 212.301C58.8259 215.876 56.7949 223.226 55.3469 228.634L52.7139 238.467L57.7889 244.326C65.3069 253.003 77.7689 264.439 87.8849 271.942C92.8029 275.59 96.6509 278.751 96.4349 278.967C95.1649 280.237 55.0979 268.213 21.9309 256.607C10.1959 252.501 0.335925 249.399 0.0209246 249.715C-0.295075 250.031 3.00593 253.598 7.35693 257.643C47.8299 295.268 84.0009 316.496 125.768 327.137C134.187 329.282 143.777 331.163 148.242 331.546C150.808 331.766 151.769 332.797 155.242 339.061C161.621 350.564 167.432 357.965 179.77 370.301C192.262 382.791 204.673 391.909 217.871 398.291C225.205 401.838 226.998 402.301 233.403 402.301C251.032 402.301 277.906 391.937 289.417 380.699C298.714 371.622 297.337 369.007 276.302 355.801C253.769 341.655 248.932 335.685 253.247 327.342C256.275 321.487 258.884 321.179 302.824 321.507C347.34 321.838 346.614 321.716 348.864 329.226C349.941 332.821 349.812 333.549 347.363 337.729C344.32 342.922 339.175 347.013 322.768 357.288C309.616 365.524 306.768 368.206 306.768 372.354C306.768 383.756 343.993 402.243 367.609 402.57C374.754 402.669 375.839 402.387 383.768 398.369C408.785 385.691 434.907 360.682 445.988 338.801C449.491 331.882 450.113 331.337 454.527 331.316C459.145 331.295 481.349 325.834 493.768 321.667C506.423 317.42 530.903 305.628 543.268 297.822C552.47 292.013 569.101 279.74 576.268 273.47C586.844 264.216 600.768 250.897 600.768 250.034C600.768 248.841 601.336 248.671 578.268 256.779C546.749 267.857 507.86 279.691 504.986 279.077C504.273 278.925 508.291 275.426 513.914 271.301C525.612 262.719 547.768 240.967 547.768 238.064C547.768 236.34 544.639 224.693 534.265 187.801C532.408 181.201 529.035 169.051 526.767 160.801C521.66 142.217 516.658 124.9 516.28 124.499C516.124 124.332 512.233 124.658 507.632 125.223C503.032 125.788 492.518 126.971 484.268 127.853C476.018 128.735 459.005 130.772 446.461 132.379C433.917 133.986 422.771 135.301 421.694 135.301C419.837 135.301 419.873 135.026 422.395 130.051C428.857 117.297 442.909 97.809 455.237 84.503C468.059 70.665 491.029 53.752 510.354 43.923L519.44 39.301H542.104H564.768L564.755 70.551C564.739 110.364 561.438 148.921 554.245 193.301C550.926 213.78 550.995 213.301 551.386 213.301C552.061 213.301 555.62 205.621 559.264 196.301C574.145 158.236 591.049 96.28 599.348 49.378L600.839 40.955L595.553 36.394C592.646 33.885 587.793 29.536 584.768 26.73C581.743 23.925 573.452 16.762 566.343 10.815L553.419 0L536.701 17.401L519.982 34.801L519.625 18.632C519.429 9.74 518.968 2.165 518.602 1.8C518.236 1.435 492.361 9.531 461.102 19.792C429.843 30.052 402.749 38.918 400.893 39.493C399.037 40.068 395.437 40.246 392.893 39.889C372.419 37.014 343.505 34.044 324.268 32.841C294.863 31.001 243.744 30.036 228.385 31.031L216.501 31.801L227.385 36.23C243.186 42.661 260.192 50.66 258.945 51.075C257.348 51.608 233.525 46.782 215.268 42.228C206.468 40.033 185.318 33.718 168.268 28.196C103.349 7.17 84.7589 1.301 83.0779 1.301C82.0509 1.301 81.7679 4.865 81.7679 17.801C81.7679 26.876 81.4129 34.301 80.9779 34.301C80.5439 34.301 73.0109 26.651 64.2389 17.301C55.4659 7.951 48.0129 0.300999 47.6749 0.300999C47.3379 0.300999 39.6839 6.585 30.6649 14.264ZM126.83 191.18C142.954 196.683 180.69 212.263 203.091 222.668C207.394 224.666 211.299 226.301 211.771 226.301C212.242 226.301 209.734 221.262 206.198 215.102C202.661 208.943 199.768 203.454 199.768 202.906C199.768 202.357 201.45 203.459 203.507 205.355C213.812 214.855 270.768 273.413 270.768 274.509C270.768 274.766 265.48 275.523 259.018 276.191C252.556 276.859 243.443 277.817 238.768 278.321C215.68 280.808 194.72 281.605 184.491 280.383C161.7 277.661 141.668 267.24 127.878 250.931C118.252 239.546 113.768 227.21 113.768 212.112C113.768 201.063 115.609 188.301 117.202 188.301C117.857 188.301 122.19 189.597 126.83 191.18ZM485.935 191.801C486.381 193.451 487.038 199.536 487.394 205.324C488.637 225.538 483.48 240.253 470.269 254.182C450.29 275.247 426.634 283.034 390.559 280.421C370.464 278.965 331.416 275.221 330.855 274.696C330.06 273.951 391.04 210.828 397.816 205.383L401.89 202.109L398.377 208.955C396.444 212.72 393.483 218.164 391.795 221.051C390.108 223.938 389.199 226.301 389.776 226.301C390.353 226.301 393.41 224.996 396.568 223.402C399.727 221.807 405.002 219.381 408.29 218.01C411.578 216.639 419.893 213.063 426.768 210.063C438.45 204.966 467.607 193.488 477.768 189.987C483.707 187.94 484.967 188.22 485.935 191.801ZM172.768 231.136C172.768 231.595 174.528 236.295 176.679 241.582C182.083 254.864 186.752 261.631 192.397 264.363C196.792 266.491 197.31 266.518 211.591 265.377C219.663 264.732 227.995 263.889 230.106 263.503L233.944 262.801L226.606 258.382C222.57 255.951 216.568 252.412 213.268 250.518C206.812 246.811 174.169 230.301 173.296 230.301C173.006 230.301 172.768 230.677 172.768 231.136ZM415.655 236.262C391.589 248.145 365.161 263.254 368.324 263.321C368.843 263.332 372.193 263.768 375.768 264.29C379.343 264.812 387.972 265.308 394.943 265.392C409.738 265.57 411.564 264.786 417.327 255.776C420.909 250.177 428.182 232.968 427.611 231.444C427.422 230.94 422.042 233.108 415.655 236.262ZM54.3179 335.137C55.3229 336.021 90.0119 360.65 122.995 383.897C140.755 396.414 173.899 418.346 184.268 424.442C187.523 426.355 185.971 424.279 175.937 413.297C155.545 390.979 141.358 370.481 131.18 348.632L126.908 339.462L121.588 338.909C118.662 338.605 111.768 338.09 106.268 337.766C100.768 337.441 88.0199 336.529 77.9389 335.738C56.7429 334.076 53.0039 333.981 54.3179 335.137ZM511.768 336.442C497.743 337.484 483.549 338.58 480.225 338.877L474.182 339.416L471.777 344.988C468.643 352.247 458.674 370.179 453.534 377.801C444.846 390.684 435.999 401.604 419.768 419.478C415.717 423.94 414.21 426.134 415.768 425.302C422.383 421.772 452.507 401.848 474.768 386.281C497.709 370.238 544.398 336.952 545.732 335.688C547.619 333.901 545.232 333.954 511.768 336.442Z" fill="url(#paint0_linear_2316_3)"/>
<defs>
<linearGradient id="paint0_linear_2316_3" x1="300.419" y1="0" x2="300.419" y2="425.476" gradientUnits="userSpaceOnUse">
<stop stop-color="#EA3644"/>
<stop offset="1" stop-color="#FF595D"/>
</linearGradient>
</defs>
</svg>
